<?xml version="1.0" standalone="no"?><!DOCTYPE svg PUBLIC "-//W3C//DTD SVG 1.1//EN" "http://www.w3.org/Graphics/SVG/1.1/DTD/svg11.dtd"><svg t="1585978770291" class="icon" viewBox="0 0 1024 1024" version="1.1" xmlns="http://www.w3.org/2000/svg" p-id="2166" width="48" height="48" xmlns:xlink="http://www.w3.org/1999/xlink"><defs><style type="text/css"></style></defs><path d="M885.76 797.013333c-5.12 3.413333-10.24 5.12-15.36 5.12-3.413333 0-6.826667 0-8.533333-1.706666l-358.4-139.946667v153.6c0 44.373333-37.546667 81.92-81.92 81.92h-23.893334c-44.373333 0-81.92-35.84-81.92-81.92V605.866667h49.493334v208.213333c0 17.066667 15.36 32.426667 32.426666 32.426667h23.893334c17.066667 0 32.426667-13.653333 32.426666-32.426667V641.706667l-76.8-35.84h-146.773333c-56.32 0-100.693333-44.373333-100.693333-100.693334v-90.453333c0-54.613333 46.08-100.693333 100.693333-100.693333h163.84L861.866667 129.706667c6.826667-3.413333 17.066667-1.706667 23.893333 3.413333 6.826667 3.413333 10.24 11.946667 10.24 20.48v624.64c0 6.826667-3.413333 15.36-10.24 18.773333z m-39.253333-607.573333L397.653333 365.226667h-167.253333c-29.013333 0-51.2 22.186667-51.2 51.2v90.453333c0 27.306667 23.893333 51.2 51.2 51.2h170.666667l290.133333 122.88v-375.466667c0-13.653333 11.946667-23.893333 25.6-23.893333s25.6 10.24 25.6 23.893333V699.733333l104.106667 40.96V189.44z" p-id="2167" fill="#ffffff"></path></svg>